<mxfile host="app.diagrams.net" modified="2021-08-10T08:13:19.662Z" agent="5.0 (Windows NT 10.0; Win64; x64) AppleWebKit/537.36 (KHTML, like Gecko) Chrome/92.0.4515.107 Safari/537.36" etag="3RZMQmbuWpX-id3qBLfM" version="14.9.3" type="github">
  <diagram id="kgpKYQtTHZ0yAKxKKP6v" name="Page-1">
    <mxGraphModel dx="1360" dy="834" grid="1" gridSize="10" guides="1" tooltips="1" connect="1" arrows="1" fold="1" page="1" pageScale="1" pageWidth="850" pageHeight="1100" math="0" shadow="0">
      <root>
        <mxCell id="0" />
        <mxCell id="1" parent="0" />
        <mxCell id="B2xj8A7_Qq3dEAx3sruu-1" value="分包" style="shape=umlLifeline;perimeter=lifelinePerimeter;whiteSpace=wrap;html=1;container=1;collapsible=0;recursiveResize=0;outlineConnect=0;" vertex="1" parent="1">
          <mxGeometry x="110" y="40" width="100" height="600" as="geometry" />
        </mxCell>
        <mxCell id="B2xj8A7_Qq3dEAx3sruu-9" value="" style="html=1;points=[];perimeter=orthogonalPerimeter;" vertex="1" parent="B2xj8A7_Qq3dEAx3sruu-1">
          <mxGeometry x="45" y="80" width="10" height="190" as="geometry" />
        </mxCell>
        <mxCell id="B2xj8A7_Qq3dEAx3sruu-30" value="" style="html=1;points=[];perimeter=orthogonalPerimeter;" vertex="1" parent="B2xj8A7_Qq3dEAx3sruu-1">
          <mxGeometry x="45" y="380" width="10" height="220" as="geometry" />
        </mxCell>
        <mxCell id="B2xj8A7_Qq3dEAx3sruu-3" value="服务端" style="shape=umlLifeline;perimeter=lifelinePerimeter;whiteSpace=wrap;html=1;container=1;collapsible=0;recursiveResize=0;outlineConnect=0;" vertex="1" parent="1">
          <mxGeometry x="590" y="40" width="100" height="560" as="geometry" />
        </mxCell>
        <mxCell id="B2xj8A7_Qq3dEAx3sruu-10" value="" style="html=1;points=[];perimeter=orthogonalPerimeter;" vertex="1" parent="B2xj8A7_Qq3dEAx3sruu-3">
          <mxGeometry x="45" y="190" width="10" height="70" as="geometry" />
        </mxCell>
        <mxCell id="B2xj8A7_Qq3dEAx3sruu-4" value="云端包" style="shape=umlLifeline;perimeter=lifelinePerimeter;whiteSpace=wrap;html=1;container=1;collapsible=0;recursiveResize=0;outlineConnect=0;" vertex="1" parent="1">
          <mxGeometry x="450" y="40" width="100" height="610" as="geometry" />
        </mxCell>
        <mxCell id="B2xj8A7_Qq3dEAx3sruu-7" value="" style="html=1;points=[];perimeter=orthogonalPerimeter;" vertex="1" parent="B2xj8A7_Qq3dEAx3sruu-4">
          <mxGeometry x="45" y="150" width="10" height="120" as="geometry" />
        </mxCell>
        <mxCell id="B2xj8A7_Qq3dEAx3sruu-45" value="" style="html=1;points=[];perimeter=orthogonalPerimeter;" vertex="1" parent="B2xj8A7_Qq3dEAx3sruu-4">
          <mxGeometry x="45" y="530" width="10" height="80" as="geometry" />
        </mxCell>
        <mxCell id="B2xj8A7_Qq3dEAx3sruu-8" value="登录" style="html=1;verticalAlign=bottom;endArrow=block;entryX=0.286;entryY=0.02;entryDx=0;entryDy=0;entryPerimeter=0;" edge="1" parent="1" target="B2xj8A7_Qq3dEAx3sruu-12">
          <mxGeometry width="80" relative="1" as="geometry">
            <mxPoint x="164" y="131" as="sourcePoint" />
            <mxPoint x="310" y="128" as="targetPoint" />
          </mxGeometry>
        </mxCell>
        <mxCell id="B2xj8A7_Qq3dEAx3sruu-11" value="渠道（集团）" style="shape=umlLifeline;perimeter=lifelinePerimeter;whiteSpace=wrap;html=1;container=1;collapsible=0;recursiveResize=0;outlineConnect=0;" vertex="1" parent="1">
          <mxGeometry x="280" y="40" width="100" height="560" as="geometry" />
        </mxCell>
        <mxCell id="B2xj8A7_Qq3dEAx3sruu-12" value="" style="html=1;points=[];perimeter=orthogonalPerimeter;" vertex="1" parent="B2xj8A7_Qq3dEAx3sruu-11">
          <mxGeometry x="45" y="90" width="10" height="50" as="geometry" />
        </mxCell>
        <mxCell id="B2xj8A7_Qq3dEAx3sruu-14" style="edgeStyle=orthogonalEdgeStyle;rounded=0;orthogonalLoop=1;jettySize=auto;html=1;entryX=-0.029;entryY=0.165;entryDx=0;entryDy=0;entryPerimeter=0;exitX=1;exitY=0.473;exitDx=0;exitDy=0;exitPerimeter=0;" edge="1" parent="1" source="B2xj8A7_Qq3dEAx3sruu-9" target="B2xj8A7_Qq3dEAx3sruu-7">
          <mxGeometry relative="1" as="geometry" />
        </mxCell>
        <mxCell id="B2xj8A7_Qq3dEAx3sruu-21" value="sendmsg_clound（Json）" style="edgeLabel;html=1;align=center;verticalAlign=middle;resizable=0;points=[];" vertex="1" connectable="0" parent="B2xj8A7_Qq3dEAx3sruu-14">
          <mxGeometry x="-0.1136" y="-2" relative="1" as="geometry">
            <mxPoint as="offset" />
          </mxGeometry>
        </mxCell>
        <mxCell id="B2xj8A7_Qq3dEAx3sruu-16" style="edgeStyle=orthogonalEdgeStyle;rounded=0;orthogonalLoop=1;jettySize=auto;html=1;entryX=0.086;entryY=0.138;entryDx=0;entryDy=0;entryPerimeter=0;exitX=0.95;exitY=0.417;exitDx=0;exitDy=0;exitPerimeter=0;" edge="1" parent="1" source="B2xj8A7_Qq3dEAx3sruu-7" target="B2xj8A7_Qq3dEAx3sruu-10">
          <mxGeometry relative="1" as="geometry" />
        </mxCell>
        <mxCell id="B2xj8A7_Qq3dEAx3sruu-27" value="getToken" style="edgeLabel;html=1;align=center;verticalAlign=middle;resizable=0;points=[];" vertex="1" connectable="0" parent="B2xj8A7_Qq3dEAx3sruu-16">
          <mxGeometry x="-0.1941" relative="1" as="geometry">
            <mxPoint as="offset" />
          </mxGeometry>
        </mxCell>
        <mxCell id="B2xj8A7_Qq3dEAx3sruu-17" style="orthogonalLoop=1;jettySize=auto;html=1;entryX=0.886;entryY=0.756;entryDx=0;entryDy=0;entryPerimeter=0;rounded=1;dashed=1;" edge="1" parent="1" source="B2xj8A7_Qq3dEAx3sruu-10" target="B2xj8A7_Qq3dEAx3sruu-7">
          <mxGeometry relative="1" as="geometry" />
        </mxCell>
        <mxCell id="B2xj8A7_Qq3dEAx3sruu-28" value="UToken" style="edgeLabel;html=1;align=center;verticalAlign=middle;resizable=0;points=[];" vertex="1" connectable="0" parent="B2xj8A7_Qq3dEAx3sruu-17">
          <mxGeometry x="0.1499" relative="1" as="geometry">
            <mxPoint as="offset" />
          </mxGeometry>
        </mxCell>
        <mxCell id="B2xj8A7_Qq3dEAx3sruu-18" style="rounded=1;orthogonalLoop=1;jettySize=auto;html=1;entryX=0.95;entryY=0.952;entryDx=0;entryDy=0;entryPerimeter=0;exitX=-0.133;exitY=0.924;exitDx=0;exitDy=0;exitPerimeter=0;dashed=1;" edge="1" parent="1" source="B2xj8A7_Qq3dEAx3sruu-7" target="B2xj8A7_Qq3dEAx3sruu-9">
          <mxGeometry relative="1" as="geometry" />
        </mxCell>
        <mxCell id="B2xj8A7_Qq3dEAx3sruu-29" value="sendmsg_local" style="edgeLabel;html=1;align=center;verticalAlign=middle;resizable=0;points=[];" vertex="1" connectable="0" parent="B2xj8A7_Qq3dEAx3sruu-18">
          <mxGeometry x="-0.1246" relative="1" as="geometry">
            <mxPoint as="offset" />
          </mxGeometry>
        </mxCell>
        <mxCell id="B2xj8A7_Qq3dEAx3sruu-25" style="edgeStyle=none;rounded=1;orthogonalLoop=1;jettySize=auto;html=1;entryX=1.2;entryY=0.199;entryDx=0;entryDy=0;entryPerimeter=0;dashed=1;" edge="1" parent="1" source="B2xj8A7_Qq3dEAx3sruu-12" target="B2xj8A7_Qq3dEAx3sruu-9">
          <mxGeometry relative="1" as="geometry">
            <Array as="points" />
          </mxGeometry>
        </mxCell>
        <mxCell id="B2xj8A7_Qq3dEAx3sruu-26" value="渠道userid等信息" style="edgeLabel;html=1;align=center;verticalAlign=middle;resizable=0;points=[];" vertex="1" connectable="0" parent="B2xj8A7_Qq3dEAx3sruu-25">
          <mxGeometry x="0.0823" relative="1" as="geometry">
            <mxPoint as="offset" />
          </mxGeometry>
        </mxCell>
        <mxCell id="B2xj8A7_Qq3dEAx3sruu-34" style="edgeStyle=none;rounded=1;orthogonalLoop=1;jettySize=auto;html=1;entryX=-0.057;entryY=0.195;entryDx=0;entryDy=0;entryPerimeter=0;dashed=1;" edge="1" parent="1" source="B2xj8A7_Qq3dEAx3sruu-31" target="B2xj8A7_Qq3dEAx3sruu-33">
          <mxGeometry relative="1" as="geometry" />
        </mxCell>
        <mxCell id="B2xj8A7_Qq3dEAx3sruu-35" value="下单" style="edgeLabel;html=1;align=center;verticalAlign=middle;resizable=0;points=[];" vertex="1" connectable="0" parent="B2xj8A7_Qq3dEAx3sruu-34">
          <mxGeometry x="0.2141" y="-1" relative="1" as="geometry">
            <mxPoint as="offset" />
          </mxGeometry>
        </mxCell>
        <mxCell id="B2xj8A7_Qq3dEAx3sruu-38" style="edgeStyle=none;rounded=1;orthogonalLoop=1;jettySize=auto;html=1;dashed=1;" edge="1" parent="1" source="B2xj8A7_Qq3dEAx3sruu-31" target="B2xj8A7_Qq3dEAx3sruu-1">
          <mxGeometry relative="1" as="geometry" />
        </mxCell>
        <mxCell id="B2xj8A7_Qq3dEAx3sruu-39" value="订单信息" style="edgeLabel;html=1;align=center;verticalAlign=middle;resizable=0;points=[];" vertex="1" connectable="0" parent="B2xj8A7_Qq3dEAx3sruu-38">
          <mxGeometry x="0.4031" y="1" relative="1" as="geometry">
            <mxPoint as="offset" />
          </mxGeometry>
        </mxCell>
        <mxCell id="B2xj8A7_Qq3dEAx3sruu-31" value="" style="html=1;points=[];perimeter=orthogonalPerimeter;" vertex="1" parent="1">
          <mxGeometry x="495" y="420" width="10" height="80" as="geometry" />
        </mxCell>
        <mxCell id="B2xj8A7_Qq3dEAx3sruu-43" style="edgeStyle=none;rounded=1;orthogonalLoop=1;jettySize=auto;html=1;entryX=1.22;entryY=0.717;entryDx=0;entryDy=0;entryPerimeter=0;dashed=1;" edge="1" parent="1" source="B2xj8A7_Qq3dEAx3sruu-32" target="B2xj8A7_Qq3dEAx3sruu-30">
          <mxGeometry relative="1" as="geometry" />
        </mxCell>
        <mxCell id="B2xj8A7_Qq3dEAx3sruu-44" value="支付完成" style="edgeLabel;html=1;align=center;verticalAlign=middle;resizable=0;points=[];" vertex="1" connectable="0" parent="B2xj8A7_Qq3dEAx3sruu-43">
          <mxGeometry x="0.0506" relative="1" as="geometry">
            <mxPoint as="offset" />
          </mxGeometry>
        </mxCell>
        <mxCell id="B2xj8A7_Qq3dEAx3sruu-32" value="" style="html=1;points=[];perimeter=orthogonalPerimeter;" vertex="1" parent="1">
          <mxGeometry x="325" y="500" width="10" height="80" as="geometry" />
        </mxCell>
        <mxCell id="B2xj8A7_Qq3dEAx3sruu-36" style="edgeStyle=none;rounded=1;orthogonalLoop=1;jettySize=auto;html=1;entryX=0.971;entryY=0.78;entryDx=0;entryDy=0;entryPerimeter=0;dashed=1;" edge="1" parent="1" source="B2xj8A7_Qq3dEAx3sruu-33" target="B2xj8A7_Qq3dEAx3sruu-31">
          <mxGeometry relative="1" as="geometry" />
        </mxCell>
        <mxCell id="B2xj8A7_Qq3dEAx3sruu-37" value="订单号" style="edgeLabel;html=1;align=center;verticalAlign=middle;resizable=0;points=[];" vertex="1" connectable="0" parent="B2xj8A7_Qq3dEAx3sruu-36">
          <mxGeometry x="-0.1053" y="1" relative="1" as="geometry">
            <mxPoint as="offset" />
          </mxGeometry>
        </mxCell>
        <mxCell id="B2xj8A7_Qq3dEAx3sruu-33" value="" style="html=1;points=[];perimeter=orthogonalPerimeter;" vertex="1" parent="1">
          <mxGeometry x="635" y="420" width="10" height="80" as="geometry" />
        </mxCell>
        <mxCell id="B2xj8A7_Qq3dEAx3sruu-40" style="edgeStyle=none;rounded=1;orthogonalLoop=1;jettySize=auto;html=1;entryX=-0.2;entryY=0.216;entryDx=0;entryDy=0;entryPerimeter=0;dashed=1;" edge="1" parent="1" source="B2xj8A7_Qq3dEAx3sruu-30" target="B2xj8A7_Qq3dEAx3sruu-32">
          <mxGeometry relative="1" as="geometry" />
        </mxCell>
        <mxCell id="B2xj8A7_Qq3dEAx3sruu-41" value="调用渠道支付" style="edgeLabel;html=1;align=center;verticalAlign=middle;resizable=0;points=[];" vertex="1" connectable="0" parent="B2xj8A7_Qq3dEAx3sruu-40">
          <mxGeometry x="0.4141" relative="1" as="geometry">
            <mxPoint as="offset" />
          </mxGeometry>
        </mxCell>
        <mxCell id="B2xj8A7_Qq3dEAx3sruu-42" style="edgeStyle=none;rounded=1;orthogonalLoop=1;jettySize=auto;html=1;dashed=1;" edge="1" parent="1" source="B2xj8A7_Qq3dEAx3sruu-32" target="B2xj8A7_Qq3dEAx3sruu-32">
          <mxGeometry relative="1" as="geometry" />
        </mxCell>
        <mxCell id="B2xj8A7_Qq3dEAx3sruu-46" style="edgeStyle=none;rounded=1;orthogonalLoop=1;jettySize=auto;html=1;entryX=0.06;entryY=0.753;entryDx=0;entryDy=0;entryPerimeter=0;dashed=1;" edge="1" parent="1" source="B2xj8A7_Qq3dEAx3sruu-30" target="B2xj8A7_Qq3dEAx3sruu-45">
          <mxGeometry relative="1" as="geometry" />
        </mxCell>
        <mxCell id="B2xj8A7_Qq3dEAx3sruu-47" value="支付完成" style="edgeLabel;html=1;align=center;verticalAlign=middle;resizable=0;points=[];" vertex="1" connectable="0" parent="B2xj8A7_Qq3dEAx3sruu-46">
          <mxGeometry x="-0.0333" relative="1" as="geometry">
            <mxPoint as="offset" />
          </mxGeometry>
        </mxCell>
      </root>
    </mxGraphModel>
  </diagram>
</mxfile>
